<svg width="40" height="41" viewBox="0 0 40 41" fill="none" xmlns="http://www.w3.org/2000/svg">
<rect y="0.740234" width="40" height="40" rx="20" fill="#FB7D5B"/>
<path d="M27 12.7402H13C12.2044 12.7402 11.4413 13.0563 10.8787 13.6189C10.3161 14.1815 10 14.9446 10 15.7402V25.7402C10 26.5359 10.3161 27.2989 10.8787 27.8616C11.4413 28.4242 12.2044 28.7402 13 28.7402H27C27.7956 28.7402 28.5587 28.4242 29.1213 27.8616C29.6839 27.2989 30 26.5359 30 25.7402V15.7402C30 14.9446 29.6839 14.1815 29.1213 13.6189C28.5587 13.0563 27.7956 12.7402 27 12.7402ZM26.427 14.7402L20.6 19.5402C20.4335 19.6669 20.2312 19.7378 20.022 19.7429C19.8129 19.7479 19.6074 19.6868 19.435 19.5682L13.573 14.7402H26.427ZM27 26.7402H13C12.7348 26.7402 12.4804 26.6349 12.2929 26.4473C12.1054 26.2598 12 26.0055 12 25.7402V16.0402L18.2 21.1402C18.7159 21.5266 19.3435 21.7347 19.988 21.7332C20.6551 21.7322 21.3037 21.5143 21.836 21.1122L28 16.0402V25.7402C28 26.0055 27.8946 26.2598 27.7071 26.4473C27.5196 26.6349 27.2652 26.7402 27 26.7402Z" fill="white"/>
</svg>
