<svg width="40" height="41" viewBox="0 0 40 41" fill="none" xmlns="http://www.w3.org/2000/svg">
<rect y="0.760742" width="40" height="40" rx="20" fill="#FB7D5B"/>
<path d="M23.7054 15.2859C23.7054 15.4921 23.6913 15.6984 23.6656 15.9023C23.6773 15.8203 23.689 15.7359 23.6984 15.6539C23.6421 16.0617 23.5343 16.4578 23.3773 16.8375C23.4077 16.7625 23.4405 16.6875 23.471 16.6125C23.314 16.9828 23.1124 17.3296 22.8663 17.6484C22.9155 17.5851 22.9648 17.5218 23.014 17.4586C22.7702 17.7726 22.4866 18.0562 22.1726 18.3C22.2359 18.2507 22.2991 18.2015 22.3624 18.1523C22.0437 18.3961 21.6968 18.6 21.3265 18.757C21.4015 18.7265 21.4765 18.6937 21.5515 18.6632C21.1718 18.8203 20.7757 18.9281 20.3679 18.9843C20.4499 18.9726 20.5343 18.9609 20.6163 18.9515C20.2062 19.0054 19.7937 19.0054 19.3835 18.9515C19.4655 18.9632 19.5499 18.975 19.632 18.9843C19.2241 18.9281 18.828 18.8203 18.4484 18.6632C18.5234 18.6937 18.5984 18.7265 18.6734 18.757C18.303 18.6 17.9562 18.3984 17.6374 18.1523C17.7007 18.2015 17.764 18.2507 17.8273 18.3C17.5132 18.0562 17.2296 17.7726 16.9859 17.4586C17.0351 17.5218 17.0843 17.5851 17.1335 17.6484C16.8898 17.3296 16.6859 16.9828 16.5288 16.6125C16.5593 16.6875 16.5921 16.7625 16.6226 16.8375C16.4655 16.4578 16.3577 16.0617 16.3015 15.6539C16.3132 15.7359 16.3249 15.8203 16.3343 15.9023C16.2804 15.4921 16.2804 15.0796 16.3343 14.6695C16.3226 14.7515 16.3109 14.8359 16.3015 14.9179C16.3577 14.5101 16.4655 14.114 16.6226 13.7343C16.5921 13.8093 16.5593 13.8843 16.5288 13.9593C16.6859 13.589 16.8874 13.2421 17.1335 12.9234C17.0843 12.9867 17.0351 13.05 16.9859 13.1132C17.2296 12.7992 17.5132 12.5156 17.8273 12.2718C17.764 12.3211 17.7007 12.3703 17.6374 12.4195C17.9562 12.1757 18.303 11.9718 18.6734 11.8148C18.5984 11.8453 18.5234 11.8781 18.4484 11.9086C18.828 11.7515 19.2241 11.6437 19.632 11.5875C19.5499 11.5992 19.4655 11.6109 19.3835 11.6203C19.7937 11.5664 20.2062 11.5664 20.6163 11.6203C20.5343 11.6086 20.4499 11.5968 20.3679 11.5875C20.7757 11.6437 21.1718 11.7515 21.5515 11.9086C21.4765 11.8781 21.4015 11.8453 21.3265 11.8148C21.6968 11.9718 22.0437 12.1734 22.3624 12.4195C22.2991 12.3703 22.2359 12.3211 22.1726 12.2718C22.4866 12.5156 22.7702 12.7992 23.014 13.1132C22.9648 13.05 22.9155 12.9867 22.8663 12.9234C23.1101 13.2421 23.314 13.589 23.471 13.9593C23.4405 13.8843 23.4077 13.8093 23.3773 13.7343C23.5343 14.114 23.6421 14.5101 23.6984 14.9179C23.6866 14.8359 23.6749 14.7515 23.6656 14.6695C23.6913 14.8734 23.703 15.0796 23.7054 15.2859C23.7077 15.7757 24.1343 16.2468 24.6429 16.2234C25.1491 16.2 25.5827 15.8109 25.5804 15.2859C25.5757 14.1632 25.2382 13.0148 24.5773 12.1007C24.3991 11.8546 24.2093 11.6132 23.9984 11.3953C23.7851 11.175 23.5507 10.9851 23.307 10.8C22.864 10.4625 22.3695 10.214 21.8445 10.0218C19.728 9.24605 17.1757 9.93746 15.7437 11.6812C15.5468 11.9203 15.3593 12.1687 15.1999 12.4359C15.0405 12.7007 14.9163 12.982 14.8015 13.2679C14.5859 13.7976 14.4757 14.3601 14.4312 14.9296C14.3444 16.0453 14.6351 17.2101 15.2163 18.1664C15.7765 19.0898 16.6226 19.882 17.6116 20.3296C17.9023 20.4609 18.1999 20.5828 18.5093 20.6695C18.8163 20.7539 19.128 20.8007 19.4445 20.8382C20.021 20.9062 20.6093 20.8593 21.1788 20.7445C23.3421 20.3039 25.1538 18.4406 25.489 16.2539C25.5382 15.9351 25.5757 15.6164 25.5757 15.2929C25.5781 14.8031 25.1421 14.332 24.6382 14.3554C24.132 14.3718 23.7054 14.7609 23.7054 15.2859ZM26.8156 29.9414C26.3562 29.9414 25.8968 29.9414 25.4374 29.9414C24.3429 29.9414 23.2507 29.9414 22.1562 29.9414C20.839 29.9414 19.5218 29.9414 18.2023 29.9414C17.0655 29.9414 15.9288 29.9414 14.7898 29.9414C14.2577 29.9414 13.7257 29.9461 13.1937 29.9414C13.1351 29.9414 13.0765 29.9367 13.0202 29.9296C13.1023 29.9414 13.1866 29.9531 13.2687 29.9625C13.1749 29.9484 13.0859 29.9226 12.9991 29.8875C13.0741 29.9179 13.1491 29.9507 13.2241 29.9812C13.1304 29.9414 13.0437 29.8898 12.9616 29.8265C13.0249 29.8757 13.0882 29.925 13.1515 29.9742C13.0812 29.9156 13.0155 29.8523 12.9593 29.782C13.0085 29.8453 13.0577 29.9086 13.1069 29.9718C13.0437 29.8898 12.9944 29.8031 12.9523 29.7093C12.9827 29.7843 13.0155 29.8593 13.046 29.9343C13.0109 29.8476 12.9874 29.7562 12.971 29.6648C12.9827 29.7468 12.9944 29.8312 13.0038 29.9132C12.9663 29.6296 12.9921 29.3296 12.9921 29.0437C12.9921 28.7086 12.9921 28.3757 12.9921 28.0406C12.9921 27.7898 13.0062 27.5414 13.039 27.2929C13.0273 27.375 13.0155 27.4593 13.0062 27.5414C13.0718 27.0609 13.1984 26.5898 13.3882 26.1421C13.3577 26.2171 13.3249 26.2921 13.2944 26.3671C13.4773 25.9406 13.7116 25.5398 13.9952 25.1718C13.946 25.2351 13.8968 25.2984 13.8476 25.3617C14.1312 24.9984 14.4569 24.6703 14.8226 24.3867C14.7593 24.4359 14.696 24.4851 14.6327 24.5343C15.0007 24.2507 15.4015 24.0164 15.828 23.8336C15.753 23.864 15.678 23.8968 15.603 23.9273C16.0507 23.7398 16.5195 23.6109 17.0023 23.5453C16.9202 23.557 16.8359 23.5687 16.7538 23.5781C17.1007 23.5336 17.4452 23.5312 17.7945 23.5312C18.2234 23.5312 18.6523 23.5312 19.0812 23.5312C20.082 23.5312 21.0827 23.5312 22.0835 23.5312C22.4702 23.5312 22.8546 23.5289 23.2413 23.5781C23.1593 23.5664 23.0749 23.5546 22.9929 23.5453C23.4734 23.6109 23.9445 23.7375 24.3921 23.9273C24.3171 23.8968 24.2421 23.864 24.1671 23.8336C24.5937 24.0164 24.9945 24.2507 25.3624 24.5343C25.2991 24.4851 25.2359 24.4359 25.1726 24.3867C25.5359 24.6703 25.864 24.9961 26.1476 25.3617C26.0984 25.2984 26.0491 25.2351 25.9999 25.1718C26.2835 25.5398 26.5179 25.9406 26.7007 26.3671C26.6702 26.2921 26.6374 26.2171 26.607 26.1421C26.7945 26.5898 26.9234 27.0586 26.989 27.5414C26.9773 27.4593 26.9656 27.375 26.9562 27.2929C27.0007 27.6468 27.0031 27.9984 27.0031 28.3546C27.0031 28.7414 27.0031 29.1281 27.0031 29.5148C27.0031 29.6484 27.0077 29.782 26.9913 29.9132C27.0031 29.8312 27.0148 29.7468 27.0241 29.6648C27.0101 29.7586 26.9843 29.8476 26.9491 29.9343C26.9796 29.8593 27.0124 29.7843 27.0429 29.7093C27.0031 29.8031 26.9515 29.8898 26.8882 29.9718C26.9374 29.9086 26.9866 29.8453 27.0359 29.782C26.9773 29.8523 26.914 29.9179 26.8437 29.9742C26.907 29.925 26.9702 29.8757 27.0335 29.8265C26.9515 29.8898 26.8648 29.939 26.771 29.9812C26.846 29.9507 26.921 29.9179 26.996 29.8875C26.9093 29.9226 26.8179 29.9461 26.7265 29.9625C26.8085 29.9507 26.8929 29.939 26.9749 29.9296C26.9234 29.9367 26.8695 29.939 26.8156 29.9414C26.5741 29.9437 26.3257 30.0445 26.1523 30.2156C25.9906 30.3773 25.8663 30.6445 25.8781 30.8789C25.9015 31.3804 26.2906 31.8234 26.8156 31.8164C27.7273 31.8023 28.5288 31.207 28.796 30.3328C28.9015 29.9859 28.8781 29.6132 28.8781 29.257C28.8781 28.4414 28.9038 27.6328 28.7632 26.8242C28.557 25.6406 27.9616 24.5273 27.146 23.6531C26.3304 22.7789 25.2335 22.1367 24.0734 21.8507C23.4077 21.6867 22.7374 21.6609 22.0577 21.6609C21.3593 21.6609 20.6632 21.6609 19.9648 21.6609C19.2757 21.6609 18.589 21.6609 17.8999 21.6609C17.2038 21.6609 16.5124 21.6937 15.8351 21.8742C14.6843 22.1789 13.6015 22.8281 12.8023 23.7093C11.996 24.5976 11.4124 25.7132 11.2226 26.9039C11.096 27.7031 11.1218 28.5046 11.1218 29.3109C11.1218 29.6812 11.1007 30.0679 11.2343 30.4218C11.4077 30.8765 11.6843 31.2351 12.0898 31.5046C12.4062 31.7132 12.8069 31.814 13.1819 31.8187C13.3648 31.8211 13.5476 31.8187 13.7304 31.8187C14.1991 31.8187 14.6655 31.8187 15.1343 31.8187C15.7999 31.8187 16.4632 31.8187 17.1288 31.8187C17.9023 31.8187 18.6757 31.8187 19.4491 31.8187C20.2437 31.8187 21.0359 31.8187 21.8304 31.8187C22.557 31.8187 23.2812 31.8187 24.0077 31.8187C24.5773 31.8187 25.1468 31.8187 25.714 31.8187C26.0398 31.8187 26.3656 31.8187 26.6913 31.8187C26.7335 31.8187 26.7757 31.8187 26.8179 31.8187C27.3077 31.8187 27.7788 31.3875 27.7554 30.8812C27.732 30.3703 27.3429 29.9414 26.8156 29.9414Z" fill="white"/>
</svg>
