<svg width="40" height="41" viewBox="0 0 40 41" fill="none" xmlns="http://www.w3.org/2000/svg">
<rect y="0.740234" width="40" height="40" rx="20" fill="#FB7D5B"/>
<path d="M27.4401 21.7401C27.2201 21.7401 26.9901 21.6701 26.7701 21.6201C26.3246 21.5219 25.8868 21.3916 25.4601 21.2301C24.9962 21.0613 24.4862 21.0701 24.0284 21.2547C23.5706 21.4393 23.1972 21.7867 22.9801 22.2301L22.7601 22.6801C21.7861 22.1383 20.8911 21.4653 20.1001 20.6801C19.3149 19.8891 18.6419 18.9941 18.1001 18.0201L18.5201 17.7401C18.9635 17.523 19.3109 17.1496 19.4955 16.6918C19.6801 16.234 19.6889 15.724 19.5201 15.2601C19.3613 14.8325 19.231 14.3949 19.1301 13.9501C19.0801 13.7301 19.0401 13.5001 19.0101 13.2701C18.8887 12.5657 18.5197 11.9278 17.9697 11.4713C17.4197 11.0148 16.7248 10.7697 16.0101 10.7801H13.0101C12.5791 10.7761 12.1524 10.8649 11.7588 11.0406C11.3653 11.2163 11.0142 11.4748 10.7295 11.7984C10.4449 12.122 10.2332 12.5031 10.1091 12.9158C9.98494 13.3285 9.95118 13.7632 10.0101 14.1901C10.5428 18.3795 12.4561 22.272 15.4478 25.2527C18.4394 28.2335 22.3388 30.1326 26.5301 30.6501H26.9101C27.6475 30.6512 28.3595 30.3806 28.9101 29.8901C29.2265 29.6071 29.4792 29.2603 29.6516 28.8724C29.8239 28.4846 29.9121 28.0645 29.9101 27.6401V24.6401C29.8979 23.9455 29.6449 23.2767 29.1944 22.7478C28.744 22.2189 28.1239 21.8627 27.4401 21.7401ZM27.9401 27.7401C27.9399 27.8821 27.9095 28.0224 27.8509 28.1517C27.7923 28.281 27.7068 28.3964 27.6001 28.4901C27.4884 28.5866 27.3577 28.6586 27.2165 28.7017C27.0753 28.7447 26.9267 28.7578 26.7801 28.7401C23.035 28.2599 19.5563 26.5466 16.8928 23.8704C14.2293 21.1942 12.5325 17.7074 12.0701 13.9601C12.0542 13.8136 12.0681 13.6654 12.1111 13.5245C12.1541 13.3836 12.2252 13.2528 12.3201 13.1401C12.4138 13.0334 12.5292 12.9479 12.6585 12.8893C12.7878 12.8307 12.9281 12.8003 13.0701 12.8001H16.0701C16.3026 12.7949 16.5297 12.871 16.7122 13.0152C16.8948 13.1594 17.0213 13.3627 17.0701 13.5901C17.1101 13.8634 17.1601 14.1334 17.2201 14.4001C17.3356 14.9272 17.4894 15.4453 17.6801 15.9501L16.2801 16.6001C16.1604 16.655 16.0527 16.733 15.9633 16.8297C15.8738 16.9263 15.8043 17.0397 15.7588 17.1633C15.7132 17.2869 15.6926 17.4182 15.6979 17.5498C15.7033 17.6814 15.7346 17.8106 15.7901 17.9301C17.2293 21.0129 19.7073 23.4909 22.7901 24.9301C23.0336 25.0301 23.3066 25.0301 23.5501 24.9301C23.6748 24.8855 23.7894 24.8166 23.8873 24.7273C23.9851 24.638 24.0643 24.5302 24.1201 24.4101L24.7401 23.0101C25.2571 23.195 25.7847 23.3486 26.3201 23.4701C26.5868 23.5301 26.8568 23.5801 27.1301 23.6201C27.3575 23.6689 27.5608 23.7954 27.705 23.978C27.8492 24.1605 27.9253 24.3876 27.9201 24.6201L27.9401 27.7401Z" fill="white"/>
</svg>
